# xmcd
#
# Track frame offsets:
#	193
#	10560
#	23453
#	37860
#	47755
#	58308
#	73775
#	87703
#	98535
#	111128
#	119788
#	133670
#	143988
#	155645
#	169778
#	181700
#	195810
#	207023
#	217540
#	226990
#
# Disc length: 3165 seconds
#
# Revision: 1
# Processed by: cddbd v1.5.2PL0 Copyright (c) Steve Scherf et al.
# Submitted via: audiograbber 1.83.01
#
DISCID=050c5b14
DTITLE=Country Gold - Country Gold - Vol. 4
DYEAR=1993
DGENRE=Country
TTITLE0=Waylon Jennings - White Lightnin
TTITLE1=Patsy Cline - Life압 Railway To Heaven
TTITLE2=Ernest Tubb and Conway Twitty - It압 Been Long Darlin
TTITLE3=Johnny Paycheck - Mr. Lovemacker
TTITLE4=Ferlin Husky - Wings Of A Dove
TTITLE5=Janie Fricke - The Foggy Dew
TTITLE6=Johnny Paycheck - Slide Off Your Satin Sheets
TTITLE7=Ferlin Husky - Gone
TTITLE8=Patsy Cline - Just A Closer Walk With Thee
TTITLE9=Waylon Jennings - Love압 Gonna Live Here
TTITLE10=Kitty Wells - I Don앖 Claim To Be An Angel
TTITLE11=Willie Nelson - Pride Wins Again
TTITLE12=George Jones - Once A Day
TTITLE13=Roger Miller - My Wlusive Dreams
TTITLE14=Ernest Tubb and Charlie Rich - Youre The Only Good Thing That압 Ever 
TTITLE14=Happened To Me
TTITLE15=Stonewall Jackson - Don앖 Be Angry
TTITLE16=Willie Nelson - Go Away
TTITLE17=Kitty Wells - A Wedding Ring Ago
TTITLE18=Ernest Tubb, Merle Haggard and Charlie Daniels - Walking The Floor Ove
TTITLE18=r You
TTITLE19=Roger Miller - Kansas City Star
EXTD=YEAR: 1993 ID3G: 2
EXTT0=
EXTT1=
EXTT2=
EXTT3=
EXTT4=
EXTT5=
EXTT6=
EXTT7=
EXTT8=
EXTT9=
EXTT10=
EXTT11=
EXTT12=
EXTT13=
EXTT14=
EXTT15=
EXTT16=
EXTT17=
EXTT18=
EXTT19=
PLAYORDER=
